<svg width="60" height="60" viewBox="0 0 60 60" fill="none" xmlns="http://www.w3.org/2000/svg">
<path d="M26.9749 37.6008C28.7022 35.8735 31.5021 35.8735 33.2294 37.6008L46.7824 51.1538L41.5703 56.3659L33.7881 48.5844V60H26.4162V48.5844L18.634 56.3659L13.4219 51.1538L26.9749 37.6008ZM18.634 55.3242L27.1534 46.8048V59.2628H33.0509V46.8048L41.5696 55.3242L45.74 51.1538L32.7082 38.122C31.2688 36.6826 28.9355 36.6826 27.4961 38.122L14.4643 51.1538L18.634 55.3242Z" fill="#16161D" fill-opacity="0.4"/>
<path d="M33.0251 22.3992C31.2978 24.1265 28.4979 24.1265 26.7706 22.3992L13.2176 8.84622L18.4297 3.63409L26.2119 11.4156L26.2119 -1.71674e-06L33.5838 -1.09534e-06L33.5838 11.4156L41.366 3.63409L46.5781 8.84623L33.0251 22.3992ZM41.366 4.6758L32.8466 13.1952L32.8466 0.737184L26.9491 0.737184L26.9491 13.1952L18.4304 4.6758L14.26 8.84622L27.2918 21.878C28.7312 23.3174 31.0645 23.3174 32.5039 21.878L45.5357 8.84623L41.366 4.6758Z" fill="#16161D" fill-opacity="0.4"/>
<path d="M22.3978 26.7737C24.125 28.501 24.125 31.3009 22.3978 33.0282L8.84479 46.5812L3.63265 41.3691L11.4141 33.5869H0V26.215H11.4141L3.63265 18.4328L8.84479 13.2207L22.3978 26.7737Z" fill="#5550F6"/>
<path d="M37.6022 33.2263C35.875 31.499 35.875 28.6991 37.6022 26.9718L51.1552 13.4188L56.3673 18.6309L48.5859 26.4131L60 26.4131L60 33.785L48.5859 33.785L56.3673 41.5672L51.1552 46.7793L37.6022 33.2263Z" fill="#5550F6"/>
</svg>
