<svg width="80" height="60" viewBox="0 0 80 60" fill="none" xmlns="http://www.w3.org/2000/svg">
<path d="M1.09162 54.5452L0.000710342 54.5452L0.000711048 44.727L1.09162 44.727L1.09162 54.5452ZM5.45526 58.9088L9.81889 58.9088C12.2289 58.9088 14.1825 56.9552 14.1825 54.5452L14.1825 44.727C14.1825 42.3924 12.3492 40.4857 10.0437 40.3687L9.81889 40.3634L5.45526 40.3634C3.04529 40.3634 1.09162 42.317 1.09162 44.727L0.000711048 44.727L0.0081688 44.4468C0.149319 41.6574 2.38564 39.4211 5.17507 39.2799L5.45526 39.2725L9.81889 39.2725C12.8314 39.2725 15.2734 41.7145 15.2734 44.727L15.2734 54.5452L15.266 54.8254C15.1201 57.7076 12.7374 59.9997 9.81889 59.9997L5.45525 59.9997L5.17507 59.9923C2.38563 59.8511 0.149317 57.6148 0.00816805 54.8254L0.000710342 54.5452L1.09162 54.5452C1.09162 56.9552 3.04529 58.9088 5.45526 58.9088Z" fill="#16161D" fill-opacity="0.4"/>
<path d="M43.6385 54.5455L42.5476 54.5455L42.5476 29.4545L43.6385 29.4545L43.6385 54.5455ZM48.0021 58.9091L52.3658 58.9091C54.7757 58.9091 56.7294 56.9554 56.7294 54.5455L56.7294 29.4545C56.7294 27.0446 54.7757 25.0909 52.3658 25.0909L48.0021 25.0909C45.5922 25.0909 43.6385 27.0446 43.6385 29.4545L42.5476 29.4545L42.555 29.1744C42.6962 26.3849 44.9325 24.1486 47.7219 24.0075L48.0021 24L52.3658 24C55.3782 24 57.8203 26.4421 57.8203 29.4545L57.8203 54.5455C57.8203 57.5579 55.3782 60 52.3658 60L48.0021 60L47.7219 59.9925C44.9325 59.8514 42.6962 57.6151 42.555 54.8256L42.5476 54.5455L43.6385 54.5455C43.6385 56.9554 45.5922 58.9091 48.0021 58.9091Z" fill="#16161D" fill-opacity="0.4"/>
<path d="M36.5469 16.3633L36.5469 59.9996L21.2741 59.9996L21.2742 16.3633L36.5469 16.3633Z" fill="#5550F6"/>
<path d="M79.0938 0L79.0937 60L63.821 60L63.821 -4.9064e-07L79.0938 0Z" fill="#5550F6"/>
</svg>
