<svg width="114" height="60" viewBox="0 0 114 60" fill="none" xmlns="http://www.w3.org/2000/svg">
<circle cx="82.606" cy="46.9566" r="12.5435" stroke="#16161D" stroke-opacity="0.4"/>
<circle cx="13.0435" cy="46.9566" r="12.5435" stroke="#16161D" stroke-opacity="0.4"/>
<circle cx="65.2154" cy="13.0435" r="12.5435" stroke="#16161D" stroke-opacity="0.4"/>
<line y1="-0.5" x2="13.2733" y2="-0.5" transform="matrix(0.524109 -0.851651 0.851666 0.524086 19.1328 35.6523)" stroke="#909192"/>
<line y1="-0.5" x2="13.2733" y2="-0.5" transform="matrix(0.524109 -0.851651 0.851666 0.524086 52.1719 35.6523)" stroke="#909192"/>
<line y1="-0.5" x2="13.2733" y2="-0.5" transform="matrix(0.524109 -0.851651 0.851666 0.524086 86.9531 35.6523)" stroke="#909192"/>
<line y1="-0.5" x2="13.2733" y2="-0.5" transform="matrix(-0.524109 -0.851651 -0.851666 0.524086 43.4766 35.6523)" stroke="#909192"/>
<line y1="-0.5" x2="13.2733" y2="-0.5" transform="matrix(-0.524109 -0.851651 -0.851666 0.524086 78.2578 35.6523)" stroke="#909192"/>
<circle cx="47.8247" cy="46.9566" r="13.0435" fill="#5550F6"/>
<circle cx="99.9966" cy="13.0435" r="13.0435" fill="#5550F6"/>
<circle cx="30.4341" cy="13.0435" r="13.0435" fill="#5550F6"/>
</svg>
