<svg width="76" height="16" viewBox="0 0 76 16" fill="none" xmlns="http://www.w3.org/2000/svg">
<path d="M35.0283 12.0708H33.7109V0.648095H36.3617L39.5746 11.6981H39.9602L43.1732 0.648095H45.8239V12.0708H44.5066V1.97669L44.7154 1.02075H44.3459L41.1008 12.0708H38.434L35.1889 1.02075H34.8194L35.0283 1.97669V12.0708Z" fill="black"/>
<path d="M47.1371 7.93916C47.1371 7.09663 47.2977 6.36753 47.619 5.75184C47.951 5.13615 48.4062 4.66628 48.9846 4.34223C49.5736 4.01819 50.2483 3.85616 51.0087 3.85616C52.144 3.85616 53.049 4.20181 53.7237 4.89311C54.3984 5.58441 54.7358 6.54575 54.7358 7.77713V8.29561H48.4383C48.4812 9.13813 48.7222 9.81863 49.1613 10.3371C49.6004 10.8556 50.2805 11.1148 51.2015 11.1148C51.8655 11.1148 52.4117 10.9582 52.8401 10.645C53.2685 10.3209 53.5524 9.85643 53.6916 9.25155H55.0089C54.8268 10.0401 54.4306 10.7368 53.8201 11.3417C53.2096 11.9357 52.3368 12.2328 51.2015 12.2328C50.2912 12.2328 49.5308 12.0438 48.9203 11.6657C48.3098 11.2768 47.86 10.7638 47.5708 10.1265C47.2817 9.47838 47.1371 8.74927 47.1371 7.93916ZM53.4345 7.29106C53.4345 6.62136 53.2203 6.07048 52.7919 5.63842C52.3743 5.19556 51.7799 4.97412 51.0087 4.97412C50.4947 4.97412 50.0448 5.07674 49.6593 5.28197C49.2737 5.4872 48.9738 5.76804 48.7596 6.12449C48.5454 6.47014 48.4383 6.859 48.4383 7.29106H53.4345Z" fill="black"/>
<path d="M56.3424 4.97412C56.3424 4.20721 56.7119 3.83996 57.4509 3.87236L61.8848 4.01819V5.16855L57.6598 5.00653V12.0708H56.3424V4.97412Z" fill="black"/>
<path d="M62.1089 12.0708V10.9366H64.3419V1.15037L62.7033 1.29619V0.162024L64.5668 0.0162031L64.7435 0C65.0541 0 65.2844 0.0972142 65.4343 0.291643C65.595 0.486071 65.6753 0.761511 65.6753 1.11796V10.9366H67.9083V12.0708H62.1089Z" fill="black"/>
<path d="M74.5734 4.01819H76.0032L72.5331 11.9897V14.2257C72.5331 14.5497 72.4421 14.7928 72.26 14.9548C72.078 15.1276 71.8049 15.2086 71.4407 15.1978L68.3402 15.052V13.9178L71.2158 14.0474V11.9897L67.7297 4.01819H69.1756L71.6978 10.2723V10.9042H72.0672V10.2723L74.5734 4.01819Z" fill="black"/>
<path d="M13.6223 6.27904L9.07905 11.896H18.1656L27.2596 0.662109H21.2568C19.2958 0.662109 17.4396 1.56272 16.1671 3.13482L14.004 5.80504C13.8094 6.04204 13.4576 6.04204 13.263 5.80504L9.08653 0.662109H0L2.53734 3.79843C3.80976 5.37054 5.67347 6.27904 7.63448 6.27904H13.6223Z" fill="black"/>
</svg>
